<?xml version="1.0" encoding="UTF-8"?>
<svg version="1.1" xmlns="http://www.w3.org/2000/svg" width="309" height="315">
<path d="M0 0 C101.97 0 203.94 0 309 0 C309 103.95 309 207.9 309 315 C207.03 315 105.06 315 0 315 C0 211.05 0 107.1 0 0 Z " fill="#1069B8" transform="translate(0,0)"/>
<path d="M0 0 C4.06052504 2.01681707 7.02784919 4.5612168 9.5625 8.3125 C10.23249298 12.42817116 10.30199558 15.99956799 9 20 C7.34375353 22.0449987 5.53678408 23.83826516 3.67602539 25.6965332 C1.62908781 28.50976788 1.46606775 30.3130149 1.28125 33.7578125 C1.1894043 35.23338623 1.1894043 35.23338623 1.09570312 36.73876953 C1.06412109 37.48497559 1.03253906 38.23118164 1 39 C1.72503723 38.99111755 2.45007446 38.98223511 3.19708252 38.9730835 C10.08040782 38.89243268 16.96366112 38.83178169 23.84733963 38.79275131 C27.38508763 38.77200955 30.92244034 38.7439434 34.45996094 38.69824219 C38.54105088 38.64585764 42.62173548 38.62694429 46.703125 38.609375 C48.578862 38.57840729 48.578862 38.57840729 50.49249268 38.54681396 C60.9945566 38.54417061 70.95703117 40.3903407 79.25390625 47.23828125 C86.24529438 54.29223213 90.29405467 62.98494201 90.41769409 72.9019928 C90.41319244 73.74426926 90.4086908 74.58654572 90.40405273 75.4543457 C90.41091599 76.3644339 90.41777924 77.27452209 90.42485046 78.21218872 C90.44304835 81.20021475 90.43929017 84.18771205 90.43359375 87.17578125 C90.43815963 89.26792062 90.44346641 91.3600585 90.44947815 93.45219421 C90.45839608 97.83074039 90.45600194 102.20910405 90.44604492 106.58764648 C90.43457029 112.17589197 90.45475074 117.76350412 90.48396206 123.35166645 C90.50238429 127.67134043 90.50201938 131.99086442 90.49632454 136.31056786 C90.49617199 138.36968053 90.50216091 140.42880379 90.51461601 142.4878788 C90.59113122 157.21305441 90.22902353 168.76750186 79.40234375 179.83984375 C71.48265315 186.96112652 63.23823842 188.24750874 53 190 C53 196.6 53 203.2 53 210 C43.80483556 205.40241778 35.60203228 199.06106881 27.49609375 192.78515625 C22.93472669 189.5229579 18.6096522 189.85479977 13.22094727 189.8581543 C12.32294907 189.85467987 11.42495087 189.85120544 10.4997406 189.84762573 C8.54689212 189.84026886 6.59403527 189.83492311 4.64117622 189.83133507 C1.5417164 189.82416161 -1.55758584 189.80848538 -4.65699768 189.78999329 C-13.4707718 189.73758654 -22.28446233 189.68961682 -31.09838867 189.67407227 C-36.49016871 189.66393999 -41.88155582 189.63447681 -47.27318001 189.59275246 C-49.32026243 189.5805055 -51.36740053 189.57530957 -53.41451836 189.57755089 C-68.07371638 189.58964372 -80.76307047 189.34738031 -91.87109375 178.578125 C-95.28107412 174.44860749 -97.12312713 169.96589281 -99 165 C-99.51501572 164.20935654 -99.51501572 164.20935654 -100.04043579 163.40274048 C-101.51325127 159.71482325 -101.2947067 155.98993168 -101.29052734 152.07568359 C-101.29724457 151.17432678 -101.30396179 150.27296997 -101.31088257 149.34429932 C-101.32988938 146.36228934 -101.33378876 143.38050431 -101.3359375 140.3984375 C-101.34236581 138.32060657 -101.3490942 136.24277654 -101.35610962 134.16494751 C-101.3680907 129.80541895 -101.37178981 125.44596965 -101.37060547 121.08642578 C-101.37040275 115.51817219 -101.39765253 109.95043169 -101.43214989 104.38229942 C-101.45446782 100.08755187 -101.45844143 95.79292657 -101.45738602 91.49812698 C-101.45973662 89.44655217 -101.46852946 87.39497371 -101.48405075 85.34345627 C-101.58095471 71.20616883 -101.09264556 59.86540032 -91 49 C-81.32563324 39.81466716 -70.23972811 38.40479132 -57.36328125 38.609375 C-55.98895602 38.61685562 -54.61461996 38.62253992 -53.24028015 38.62652588 C-49.66115732 38.64163955 -46.08270649 38.68079291 -42.50384521 38.7253418 C-38.83664027 38.76660717 -35.16932441 38.78460289 -31.50195312 38.8046875 C-24.33429675 38.84730569 -17.16732897 38.91753306 -10 39 C-10 34.71 -10 30.42 -10 26 C-11.65 25.67 -13.3 25.34 -15 25 C-18.03569594 21.85962489 -18.26614459 18.76070751 -18.4375 14.5625 C-18.29764923 9.61444644 -17.38832532 6.76480592 -14 3 C-9.62813137 -0.84390992 -5.61693954 -1.04266542 0 0 Z " fill="#FCFDFD" transform="translate(160,31)"/>
<path d="M0 0 C1.84395355 -0.00639748 1.84395355 -0.00639748 3.72515869 -0.01292419 C5.07957462 -0.01257471 6.43399052 -0.01211319 7.78840637 -0.0115509 C9.22117704 -0.01454461 10.6539469 -0.01794763 12.0867157 -0.02172852 C15.97333506 -0.03055334 19.8599324 -0.03290605 23.74656081 -0.0335443 C26.17807159 -0.03425591 28.6095768 -0.03639239 31.0410862 -0.03904152 C39.53352335 -0.04829145 48.02594482 -0.05237704 56.51838684 -0.05158997 C64.41801457 -0.05098997 72.31757383 -0.06152741 80.21718425 -0.07733363 C87.01144358 -0.09044067 93.80568064 -0.0957725 100.59995252 -0.09513456 C104.65234459 -0.0948804 108.70467587 -0.09768539 112.75705528 -0.10831261 C116.57297752 -0.11804641 120.38878151 -0.11803684 124.2047081 -0.11079597 C125.59860089 -0.10975651 126.99250124 -0.11207471 128.38638115 -0.11815643 C146.79764118 -0.19322884 161.13052975 3.77425314 174.6275177 16.81730652 C179.50636926 22.08798294 184.69120063 29.18178947 185.0493927 36.47355652 C184.96818176 37.79033386 184.96818176 37.79033386 184.8853302 39.13371277 C185.5453302 39.13371277 186.2053302 39.13371277 186.8853302 39.13371277 C186.8853302 43.75371277 186.8853302 48.37371277 186.8853302 53.13371277 C108.6753302 53.13371277 30.4653302 53.13371277 -50.1146698 53.13371277 C-50.1146698 41.86680885 -50.1146698 41.86680885 -48.1771698 35.63371277 C-47.81752136 34.44777527 -47.45787292 33.26183777 -47.08732605 32.03996277 C-46.1146698 29.13371277 -46.1146698 29.13371277 -45.1146698 27.13371277 C-44.4546698 27.13371277 -43.7946698 27.13371277 -43.1146698 27.13371277 C-42.8671698 26.42086121 -42.6196698 25.70800964 -42.3646698 24.97355652 C-37.81238762 14.63134044 -29.36000287 8.15666466 -19.21232605 3.92277527 C-12.72050207 1.4654674 -6.97145836 0.0109553 0 0 Z " fill="#FAFCFD" transform="translate(86.11466979980469,244.8662872314453)"/>
<path d="M0 0 C2.62187494 1.04874998 3.79371361 1.64931313 5.25 4.125 C5.4975 4.74375 5.745 5.3625 6 6 C6.66 6 7.32 6 8 6 C8.33 5.34 8.66 4.68 9 4 C11.0625 3.375 11.0625 3.375 13 3 C12.67 5.31 12.34 7.62 12 10 C11.34 10 10.68 10 10 10 C10.44654708 13.58490499 10.90928013 17.16753943 11.375 20.75 C11.50132812 21.76578125 11.62765625 22.7815625 11.7578125 23.828125 C11.95117188 25.29765625 11.95117188 25.29765625 12.1484375 26.796875 C12.26364746 27.69760742 12.37885742 28.59833984 12.49755859 29.52636719 C12.99847944 31.99251393 13.83629375 33.78781782 15 36 C15 36.66 15 37.32 15 38 C15.763125 37.62875 16.52625 37.2575 17.3125 36.875 C18.199375 36.58625 19.08625 36.2975 20 36 C20.99 36.66 21.98 37.32 23 38 C22.67 38.99 22.34 39.98 22 41 C21.34 41 20.68 41 20 41 C20 41.66 20 42.32 20 43 C23.3 43 26.6 43 30 43 C30.2475 43.9075 30.495 44.815 30.75 45.75 C31.72556767 49.04103055 31.72556767 49.04103055 34.04711914 50.78833008 C36.70144377 53.79439669 36.50233306 55.66824342 36.49609375 59.63671875 C36.49673828 60.93673828 36.49738281 62.23675781 36.49804688 63.57617188 C36.48245728 64.59022095 36.48245728 64.59022095 36.46655273 65.62475586 C36.43782968 67.66409238 36.44589991 69.70078637 36.45898438 71.74023438 C36.4065266 79.91961185 36.33336015 87.80641788 31.0625 94.4375 C26.62278142 97.80092317 23.67503883 98.42037325 18 98 C17.34 97.34 16.68 96.68 16 96 C16.01747927 93.24410223 16.13863271 90.61213324 16.375 87.875 C16.43171875 87.12089844 16.4884375 86.36679688 16.546875 85.58984375 C16.6884465 83.72581904 16.84299959 81.86278863 17 80 C16.34 80 15.68 80 15 80 C12.78376868 83.57538715 12.72113239 86.58468071 12.65625 90.7421875 C12.62660156 92.05574219 12.59695312 93.36929688 12.56640625 94.72265625 C12.54319083 96.10675314 12.52106498 97.49086871 12.5 98.875 C12.45860077 101.58123553 12.40470738 104.28620983 12.34375 106.9921875 C12.32505859 108.19214355 12.30636719 109.39209961 12.28710938 110.62841797 C11.99631694 114.04325093 11.21879301 116.80887877 10 120 C9.34 120 8.68 120 8 120 C7.731875 120.556875 7.46375 121.11375 7.1875 121.6875 C5.89877353 124.19712523 4.47073522 126.59334236 3 129 C2.01 128.67 1.02 128.34 0 128 C0.40992188 127.43152344 0.81984375 126.86304688 1.2421875 126.27734375 C1.78101563 125.50519531 2.31984375 124.73304688 2.875 123.9375 C3.67550781 122.80634766 3.67550781 122.80634766 4.4921875 121.65234375 C7.99648669 115.48804543 8.29793366 109.56808942 8.29052734 102.64331055 C8.29724457 101.73176208 8.30396179 100.82021362 8.31088257 99.88104248 C8.32980072 96.88287833 8.33378365 93.88493879 8.3359375 90.88671875 C8.34236973 88.79075531 8.34909841 86.69479276 8.35610962 84.59883118 C8.36806695 80.2101534 8.37179203 75.82155424 8.37060547 71.43286133 C8.37040238 65.82770309 8.39770184 60.2230524 8.43214989 54.61801434 C8.45446008 50.28981745 8.45844174 45.96174191 8.45738602 41.63349342 C8.45973586 39.5679633 8.46852441 37.50242951 8.48405075 35.43695641 C8.70607874 17.38456432 8.70607874 17.38456432 0 2 C0 1.34 0 0.68 0 0 Z " fill="#166AB9" transform="translate(241,80)"/>
<path d="M0 0 C0.9839122 -0.00832352 0.9839122 -0.00832352 1.98770142 -0.01681519 C4.14490003 -0.02857696 6.29998124 -0.00437672 8.45703125 0.02148438 C9.96248275 0.02319654 11.46793723 0.02312872 12.97338867 0.0213623 C16.12415198 0.02301355 19.27420206 0.041674 22.42480469 0.07324219 C26.45667423 0.11291993 30.48761032 0.11728638 34.51963806 0.10977936 C37.62699891 0.10670489 40.73415121 0.11884698 43.84146118 0.13591003 C45.32775565 0.14292458 46.81407375 0.14606644 48.30038452 0.1452179 C50.38037557 0.1470225 52.45926315 0.16845804 54.5390625 0.1953125 C55.72089111 0.20373169 56.90271973 0.21215088 58.12036133 0.2208252 C61.62303889 0.65950847 63.53540993 1.39141292 66.26953125 3.61523438 C67.02473958 8.90169271 67.02473958 8.90169271 66.26953125 11.61523438 C64.03085623 14.52023711 62.86270964 15.51850629 59.19592285 16.11643982 C57.99109253 16.11660599 56.78626221 16.11677216 55.54492188 16.11694336 C54.87776657 16.12234634 54.21061127 16.12774933 53.52323914 16.13331604 C51.32363159 16.14579702 49.1253347 16.12931859 46.92578125 16.11132812 C45.39408296 16.11148313 43.86238428 16.11297236 42.33068848 16.11573792 C39.1227888 16.11712161 35.9153364 16.1045694 32.70751953 16.08178711 C28.59820255 16.05340209 24.48962862 16.05613995 20.38025665 16.06887722 C17.21805489 16.07583646 14.05602449 16.06804241 10.8938446 16.05562019 C9.37880613 16.05110804 7.86374924 16.05076684 6.34870911 16.05468559 C4.23013687 16.05760034 2.11258395 16.04108025 -0.00585938 16.01928711 C-1.2106897 16.01388412 -2.41552002 16.00848114 -3.65686035 16.00291443 C-7.00800856 15.58022775 -8.388432 15.01356424 -10.73046875 12.61523438 C-11.79296875 9.24023438 -11.79296875 9.24023438 -11.73046875 5.61523438 C-8.14973601 0.99485961 -5.77204282 -0.01003389 0 0 Z " fill="#0D1318" transform="translate(127.73046875,180.384765625)"/>
<path d="M0 0 C1.89412106 2.8411816 3.24450973 5.59989616 4.6875 8.6875 C8.86573572 17.08453683 14.04058769 23.04413951 22 28 C23.32175278 28.37664106 24.65415535 28.72144827 26 29 C26 29.66 26 30.32 26 31 C37.38348561 33.65667832 48.83698323 33.28218487 60.45288086 33.25878906 C62.71924451 33.2615026 64.98560727 33.26506557 67.25196838 33.26940918 C73.38005655 33.27849275 79.50807705 33.27500544 85.63616633 33.26865101 C92.06559725 33.26356949 98.49502258 33.26828849 104.92445374 33.27142334 C116.41093295 33.27528939 127.89737772 33.26909326 139.38385154 33.25890467 C149.77504055 33.24997254 160.16618485 33.25152103 170.55737305 33.26074219 C182.65467449 33.27147249 194.75194089 33.2754146 206.84924799 33.26951766 C213.241789 33.26640885 219.6342993 33.26595855 226.0268383 33.27259064 C232.03925179 33.27839315 238.05158135 33.27431421 244.06398582 33.26280212 C246.26289989 33.26017092 248.4618211 33.26089412 250.66073227 33.26532745 C261.62278617 33.28538088 272.22328308 33.25225494 283 31 C283 30.34 283 29.68 283 29 C283.70125 28.67128906 284.4025 28.34257812 285.125 28.00390625 C295.60460649 22.74986441 302.0197356 16.07665686 306 5 C306.66 5 307.32 5 308 5 C308.33 3.68 308.66 2.36 309 1 C309 12.22 309 23.44 309 35 C207.03 35 105.06 35 0 35 C0 23.45 0 11.9 0 0 Z " fill="#F8FAFC" transform="translate(0,280)"/>
<path d="M0 0 C4.61797626 2.60790029 7.94679238 5.98951563 9.51953125 11.11328125 C10.34036958 17.05728298 10.05352501 22.09729011 6.51953125 27.11328125 C2.11359079 31.54005358 -1.36264099 34.23001021 -7.79296875 34.36328125 C-12.08279776 34.29375404 -14.86749124 33.57667501 -18.48046875 31.11328125 C-23.02922215 26.35776633 -25.21334004 22.8290898 -25.85546875 16.30078125 C-25.66865986 10.11273687 -22.85733913 5.80789095 -19.04296875 1.11328125 C-13.83399677 -2.78350695 -5.83372808 -2.08544295 0 0 Z " fill="#0F171A" transform="translate(202.48046875,120.88671875)"/>
<path d="M0 0 C4.52355068 3.0251689 6.26618998 5.15966635 7.5625 10.4375 C7.98793749 15.28748736 7.32729318 18.91521748 5.5625 23.4375 C4.9025 23.4375 4.2425 23.4375 3.5625 23.4375 C3.294375 24.035625 3.02625 24.63375 2.75 25.25 C1.53949666 27.47987457 0.571121 28.89240692 -1.4375 30.4375 C-2.7575 30.4375 -4.0775 30.4375 -5.4375 30.4375 C-5.4375 31.0975 -5.4375 31.7575 -5.4375 32.4375 C-11.05106164 33.0586728 -15.20927588 33.14552272 -19.875 29.6875 C-23.44167369 26.73885119 -25.96309456 23.86071633 -27.4375 19.4375 C-28.094487 12.09693373 -27.40345192 6.99664231 -22.5625 1.1875 C-15.81466449 -4.36954101 -7.43819683 -4.07795879 0 0 Z " fill="#0E161A" transform="translate(127.4375,122.5625)"/>
<path d="M0 0 C0 17.16 0 34.32 0 52 C-9.48698885 50.81412639 -9.48698885 50.81412639 -13 47 C-16.98246576 40.21434232 -16.47967988 33.19207615 -16.4375 25.5 C-16.4674707 23.56060547 -16.4674707 23.56060547 -16.49804688 21.58203125 C-16.49443045 14.54446801 -16.37802551 9.64749016 -12 4 C-8.08691148 0.4426468 -5.37095007 0 0 0 Z " fill="#F9FCFC" transform="translate(50,126)"/>
<path d="M0 0 C7.2 0 7.2 0 11 3 C14.57355561 7.50227627 15.50467081 10.47274304 15.49609375 16.19140625 C15.49754898 16.85913559 15.49900421 17.52686493 15.50050354 18.21482849 C15.49885317 19.61746615 15.4873889 21.02012356 15.46655273 22.42260742 C15.43752688 24.56051996 15.44597308 26.69595814 15.45898438 28.83398438 C15.40633937 40.39112649 15.40633937 40.39112649 12 45 C7.69225476 49.21201757 6.20002453 49.96666258 0 51 C0 34.17 0 17.34 0 0 Z " fill="#F9FCFD" transform="translate(260,126)"/>
<path d="M0 0 C6.80696203 5.48338608 6.80696203 5.48338608 8.25 9.8125 C8.318991 11.87395107 8.33467727 13.93751401 8.3125 16 C8.30347656 17.08667969 8.29445312 18.17335938 8.28515625 19.29296875 C8.27355469 20.12441406 8.26195312 20.95585938 8.25 21.8125 C8.91 21.8125 9.57 21.8125 10.25 21.8125 C10.91 22.8025 11.57 23.7925 12.25 24.8125 C12.58 24.8125 12.91 24.8125 13.25 24.8125 C13.5 30.4375 13.5 30.4375 11.25 33.8125 C10.59 33.8125 9.93 33.8125 9.25 33.8125 C8.92 32.8225 8.59 31.8325 8.25 30.8125 C7.26 31.4725 6.27 32.1325 5.25 32.8125 C4.92 31.8225 4.59 30.8325 4.25 29.8125 C3.26 29.8125 2.27 29.8125 1.25 29.8125 C1.58 32.4525 1.91 35.0925 2.25 37.8125 C4.725 37.3175 4.725 37.3175 7.25 36.8125 C7.58 35.8225 7.91 34.8325 8.25 33.8125 C8.58 34.8025 8.91 35.7925 9.25 36.8125 C9.82105469 36.80805878 10.39210937 36.80361755 10.98046875 36.79904175 C16.95065801 36.75462423 22.92079994 36.72455739 28.89111328 36.70263672 C31.11606759 36.69261003 33.34100883 36.67898528 35.56591797 36.66162109 C38.77314491 36.63722608 41.98019685 36.62598329 45.1875 36.6171875 C46.66766602 36.60170364 46.66766602 36.60170364 48.17773438 36.58590698 C53.891982 36.58498904 58.76886546 37.1760869 64.25 38.8125 C64.25 39.4725 64.25 40.1325 64.25 40.8125 C64.97574219 40.91433594 65.70148438 41.01617187 66.44921875 41.12109375 C69.54731653 41.88589613 71.46088295 43.04998505 74.0625 44.875 C74.85269531 45.42285156 75.64289063 45.97070312 76.45703125 46.53515625 C77.04871094 46.95667969 77.64039063 47.37820312 78.25 47.8125 C77.755 48.8025 77.755 48.8025 77.25 49.8125 C76.71632813 49.41417969 76.18265625 49.01585937 75.6328125 48.60546875 C74.88773437 48.07566406 74.14265625 47.54585937 73.375 47 C72.65570313 46.47792969 71.93640625 45.95585938 71.1953125 45.41796875 C62.54329127 40.70181394 53.83259996 40.34986149 44.1484375 40.30078125 C42.83082428 40.28283005 41.51321106 40.26487885 40.15567017 40.24638367 C36.68704094 40.1992865 33.21847487 40.16921888 29.74963379 40.14294434 C26.19624357 40.11293294 22.64307029 40.06647454 19.08984375 40.02148438 C12.14335366 39.93591123 5.19679094 39.86836396 -1.75 39.8125 C-1.84333334 38.06612955 -1.90972682 36.31830648 -1.96484375 34.5703125 C-2.00472412 33.59723145 -2.04460449 32.62415039 -2.08569336 31.62158203 C-1.58298057 27.41488138 0.7108067 25.65428769 3.61328125 22.78125 C5.96828879 19.9484963 6.33087778 17.53671116 6.44921875 13.91796875 C5.99936021 9.16358145 4.11535503 6.61453637 0.6875 3.4375 C-3.90082519 1.26847355 -7.75600875 0.97738441 -12.75 1.8125 C-16.2772243 3.91382511 -18.45710385 6.43349515 -20.75 9.8125 C-20.75 6.52027318 -20.33504415 5.78530347 -18.5 3.1875 C-18.08234375 2.57648437 -17.6646875 1.96546875 -17.234375 1.3359375 C-13.2318174 -2.77195056 -4.87803145 -2.10642267 0 0 Z " fill="#2F67AE" transform="translate(162.75,30.1875)"/>
<path d="M0 0 C1.01083396 3.14481675 0.79954681 4.85253376 0 8 C-0.0954595 9.36020322 -0.14559347 10.7240951 -0.15821838 12.08758545 C-0.17290161 13.29485039 -0.17290161 13.29485039 -0.18788147 14.52650452 C-0.19363693 15.40044357 -0.1993924 16.27438263 -0.20532227 17.17480469 C-0.22017166 18.56556465 -0.22017166 18.56556465 -0.23532104 19.98442078 C-0.2668905 23.0468796 -0.29167554 26.10935394 -0.31640625 29.171875 C-0.3369797 31.29608563 -0.35797628 33.4202922 -0.37937927 35.54449463 C-0.43455949 41.13397941 -0.48398667 46.7235009 -0.53222656 52.31304932 C-0.58247112 58.0173265 -0.63814177 63.72155042 -0.69335938 69.42578125 C-0.80089143 80.617142 -0.90234744 91.808549 -1 103 C-1.33 103 -1.66 103 -2 103 C-3.25771338 98.07209099 -3.22408872 93.1585117 -3.31640625 88.10546875 C-3.33718735 87.15811356 -3.35796844 86.21075836 -3.37937927 85.23469543 C-3.44457778 82.2190349 -3.50362132 79.2032899 -3.5625 76.1875 C-3.60571348 74.13866326 -3.64932866 72.08983496 -3.69335938 70.04101562 C-3.80022866 65.02742953 -3.90157931 60.01375877 -4 55 C-5.485 54.505 -5.485 54.505 -7 54 C-7.33 65.22 -7.66 76.44 -8 88 C-8.33 88 -8.66 88 -9 88 C-9 70.84 -9 53.68 -9 36 C-18.53828712 37.96957247 -18.53828712 37.96957247 -24.11669922 44.68847656 C-25.3717764 47.9729074 -25.24629835 51.14601839 -25.1953125 54.609375 C-25.1924826 55.33618469 -25.18965271 56.06299438 -25.18673706 56.81182861 C-25.17557523 59.12472251 -25.15047851 61.43722388 -25.125 63.75 C-25.11496501 65.32160898 -25.10584006 66.89322404 -25.09765625 68.46484375 C-25.07564904 72.31004622 -25.04114715 76.15495664 -25 80 C-28.47290274 76.52709726 -27.30390736 71.43544206 -27.32226562 66.7421875 C-27.32009033 66.00452148 -27.31791504 65.26685547 -27.31567383 64.50683594 C-27.31253134 62.27228237 -27.33590369 60.03907557 -27.36132812 57.8046875 C-27.36360304 56.37500166 -27.36430372 54.94531228 -27.36328125 53.515625 C-27.36626221 52.21915039 -27.36924316 50.92267578 -27.37231445 49.58691406 C-26.97269579 45.73694856 -25.88261269 43.34564194 -24 40 C-23.814375 38.9171875 -23.814375 38.9171875 -23.625 37.8125 C-23 36 -23 36 -21 34.25 C-15.35991569 31.89996487 -9.85079436 32.7905773 -4 34 C-3.98541748 33.39639648 -3.97083496 32.79279297 -3.95581055 32.17089844 C-3.35809075 10.01091203 -3.35809075 10.01091203 0 0 Z " fill="#1457A1" transform="translate(60,90)"/>
<path d="M0 0 C5.48938665 2.8666797 10.49020641 5.72147788 15 10 C15 10.66 15 11.32 15 12 C15.57218262 11.98839844 16.14436523 11.97679687 16.73388672 11.96484375 C31.04904368 11.80480207 42.58293352 13.57863701 55 21 C55.99 22.485 55.99 22.485 57 24 C54.38951811 22.97292516 51.80501376 21.91395232 49.23828125 20.78125 C47.79001953 20.14703125 47.79001953 20.14703125 46.3125 19.5 C45.35988281 19.0771875 44.40726563 18.654375 43.42578125 18.21875 C34.2434692 14.95206658 25.26822821 14.70281195 15.59277344 14.70947266 C14.16575269 14.70347594 12.73873517 14.6966678 11.3117218 14.68911743 C7.46230554 14.6715661 3.61297838 14.66676667 -0.23647404 14.66548586 C-2.6491213 14.66405747 -5.0617464 14.65977494 -7.47438812 14.65449142 C-15.91311565 14.63602683 -24.35178029 14.62781629 -32.79052734 14.62939453 C-40.62153401 14.63059484 -48.45226459 14.60950508 -56.28320146 14.5779072 C-63.03602065 14.55164331 -69.78875022 14.54103146 -76.54162002 14.54230535 C-80.56172279 14.54281204 -84.58157988 14.5372931 -88.60163116 14.51594925 C-92.38737803 14.49639525 -96.17264912 14.49655756 -99.95841408 14.51098251 C-101.98576324 14.5140259 -104.01311335 14.4975151 -106.04039001 14.48010254 C-115.99292296 14.54734366 -125.35828866 16.07844604 -134.27763748 20.69732094 C-135.62520693 21.34214707 -135.62520693 21.34214707 -137 22 C-137.66 21.67 -138.32 21.34 -139 21 C-138.01 20.67 -137.02 20.34 -136 20 C-136 19.34 -136 18.68 -136 18 C-134.50292061 17.36803616 -133.00213297 16.74485607 -131.5 16.125 C-130.6646875 15.77695313 -129.829375 15.42890625 -128.96875 15.0703125 C-120.8819401 12.15480472 -113.70815961 11.69671434 -105.15820312 11.68115234 C-103.88907074 11.67110672 -102.61993835 11.6610611 -101.31234741 11.65071106 C-97.85426637 11.62355726 -94.39622573 11.6083054 -90.93806648 11.59528303 C-87.31588262 11.57958803 -83.69378049 11.55281833 -80.07165527 11.5272522 C-73.22250452 11.48057665 -66.3733382 11.44377846 -59.52411032 11.41057932 C-51.7223297 11.37227833 -43.92063141 11.32288922 -36.11892033 11.27259517 C-20.07933945 11.16944239 -4.03971278 11.08012817 12 11 C11.67 10.01 11.34 9.02 11 8 C9.67851173 7.62243192 8.34164079 7.2981424 7 7 C4.25 5.5625 4.25 5.5625 2 4 C2 3.34 2 2.68 2 2 C1.34 2 0.68 2 0 2 C0 1.34 0 0.68 0 0 Z " fill="#2762A0" transform="translate(197,231)"/>
<path d="M0 0 C2.62187494 1.04874998 3.79371361 1.64931313 5.25 4.125 C5.4975 4.74375 5.745 5.3625 6 6 C6.66 6 7.32 6 8 6 C8.33 5.34 8.66 4.68 9 4 C11.0625 3.375 11.0625 3.375 13 3 C12.67 5.31 12.34 7.62 12 10 C11.34 10 10.68 10 10 10 C10.14129333 10.76880493 10.28258667 11.53760986 10.42816162 12.32971191 C12.22008295 23.19785168 12.29220784 33.85557321 12.265625 44.84375 C12.26697534 46.82718961 12.26891893 48.81062889 12.27142334 50.79406738 C12.27435175 54.92231441 12.27014744 59.05047415 12.26074219 63.17871094 C12.24928881 68.46219485 12.25595862 73.74547684 12.26788712 79.02895355 C12.27511658 83.11248293 12.27281381 87.19596442 12.26763153 91.27949524 C12.26630115 93.22829716 12.26792125 95.17710349 12.27259064 97.12590027 C12.27768037 99.84381656 12.26991395 102.56140496 12.25878906 105.27929688 C12.26283752 106.07729706 12.26688599 106.87529724 12.27105713 107.69747925 C12.23709822 112.18520935 11.69496286 115.77053191 10 120 C9.34 120 8.68 120 8 120 C7.731875 120.556875 7.46375 121.11375 7.1875 121.6875 C5.89877353 124.19712523 4.47073522 126.59334236 3 129 C2.01 128.67 1.02 128.34 0 128 C0.40992188 127.43152344 0.81984375 126.86304688 1.2421875 126.27734375 C1.78101563 125.50519531 2.31984375 124.73304688 2.875 123.9375 C3.67550781 122.80634766 3.67550781 122.80634766 4.4921875 121.65234375 C7.99648669 115.48804543 8.29793366 109.56808942 8.29052734 102.64331055 C8.29724457 101.73176208 8.30396179 100.82021362 8.31088257 99.88104248 C8.32980072 96.88287833 8.33378365 93.88493879 8.3359375 90.88671875 C8.34236973 88.79075531 8.34909841 86.69479276 8.35610962 84.59883118 C8.36806695 80.2101534 8.37179203 75.82155424 8.37060547 71.43286133 C8.37040238 65.82770309 8.39770184 60.2230524 8.43214989 54.61801434 C8.45446008 50.28981745 8.45844174 45.96174191 8.45738602 41.63349342 C8.45973586 39.5679633 8.46852441 37.50242951 8.48405075 35.43695641 C8.70607874 17.38456432 8.70607874 17.38456432 0 2 C0 1.34 0 0.68 0 0 Z " fill="#3472B4" transform="translate(241,80)"/>
<path d="M0 0 C10.89 0 21.78 0 33 0 C33 10.23 33 20.46 33 31 C30.81024227 27.71536341 30.00193437 24.79303725 29 21 C28.34 21 27.68 21 27 21 C25.7734375 19.2421875 25.7734375 19.2421875 24.375 16.875 C19.74431911 9.73276338 13.85534728 6.04859565 6.078125 2.859375 C4.00902653 2.00373278 2.00265666 1.00132833 0 0 Z " fill="#F6F9FC" transform="translate(276,0)"/>
<path d="M0 0 C11.22 0 22.44 0 34 0 C34 0.33 34 0.66 34 1 C33.09121094 1.22042969 33.09121094 1.22042969 32.1640625 1.4453125 C21.14387312 4.39533243 12.67021493 9.6122901 6 19 C4.42323745 21.92827332 3.19633189 24.90256644 2 28 C1.34 29.32 0.68 30.64 0 32 C0 21.44 0 10.88 0 0 Z " fill="#F8FAFC" transform="translate(0,0)"/>
<path d="M0 0 C1.84658203 0.11794922 1.84658203 0.11794922 3.73046875 0.23828125 C6.8125 0.6875 6.8125 0.6875 8.8125 2.6875 C7.95785156 2.74808594 7.10320313 2.80867187 6.22265625 2.87109375 C5.11792969 2.95488281 4.01320312 3.03867187 2.875 3.125 C1.77285156 3.20621094 0.67070313 3.28742188 -0.46484375 3.37109375 C-3.09859903 3.39168084 -3.09859903 3.39168084 -4.1875 4.6875 C-5.85367115 4.72813832 -7.52138095 4.730221 -9.1875 4.6875 C-9.5175 6.0075 -9.8475 7.3275 -10.1875 8.6875 C-11.5075 9.0175 -12.8275 9.3475 -14.1875 9.6875 C-14.1875 10.3475 -14.1875 11.0075 -14.1875 11.6875 C-15.5075 11.6875 -16.8275 11.6875 -18.1875 11.6875 C-18.1875 12.3475 -18.1875 13.0075 -18.1875 13.6875 C-19.8375 13.6875 -21.4875 13.6875 -23.1875 13.6875 C-23.5175 14.3475 -23.8475 15.0075 -24.1875 15.6875 C-25.1775 15.3575 -26.1675 15.0275 -27.1875 14.6875 C-27.1875 15.3475 -27.1875 16.0075 -27.1875 16.6875 C-26.5275 17.0175 -25.8675 17.3475 -25.1875 17.6875 C-26.1775 20.3275 -27.1675 22.9675 -28.1875 25.6875 C-29.1775 25.6875 -30.1675 25.6875 -31.1875 25.6875 C-31.8475 24.6975 -32.5075 23.7075 -33.1875 22.6875 C-35.71338702 25.05042656 -37.07570837 26.35212511 -38.1875 29.6875 C-38.8475 29.6875 -39.5075 29.6875 -40.1875 29.6875 C-37.48121073 19.43208801 -31.88335012 11.80735342 -23.1875 5.6875 C-15.31624317 1.40916237 -8.98741414 -0.63451712 0 0 Z " fill="#1668B9" transform="translate(41.1875,0.3125)"/>
<path d="M0 0 C2 2 2 2 2.375 3.875 C2.84376837 6.18255751 2.84376837 6.18255751 5.00805664 7.71801758 C7.67983827 10.77882685 7.50241788 12.61429979 7.49609375 16.63671875 C7.49673828 17.93673828 7.49738281 19.23675781 7.49804688 20.57617188 C7.48765381 21.25220459 7.47726074 21.9282373 7.46655273 22.62475586 C7.43782968 24.66409238 7.44589991 26.70078637 7.45898438 28.74023438 C7.4065266 36.91961185 7.33336015 44.80641788 2.0625 51.4375 C-2.37721858 54.80092317 -5.32496117 55.42037325 -11 55 C-13 53 -13 53 -13.20254517 50.86129761 C-13.18033905 49.9774942 -13.15813293 49.0936908 -13.13525391 48.18310547 C-13.11508209 47.18221893 -13.09491028 46.1813324 -13.0741272 45.15011597 C-13.04193085 44.06674957 -13.0097345 42.98338318 -12.9765625 41.8671875 C-12.95153656 40.76021515 -12.92651062 39.6532428 -12.90072632 38.51272583 C-12.81835514 34.96651357 -12.72183122 31.42084409 -12.625 27.875 C-12.56677799 25.47528281 -12.50947436 23.07554315 -12.453125 20.67578125 C-12.31275091 14.78355174 -12.16074623 8.891707 -12 3 C-11.34 3 -10.68 3 -10 3 C-10 19.83 -10 36.66 -10 54 C-2.23239498 51.25507364 -2.23239498 51.25507364 3 46 C4.72666262 40.82001214 4.26500759 35.28162057 4.29516602 29.85864258 C4.30667992 28.41648543 4.32712291 26.97437071 4.35668945 25.5324707 C4.39953925 23.44192739 4.41555746 21.35264766 4.42578125 19.26171875 C4.44036377 18.01350342 4.45494629 16.76528809 4.4699707 15.47924805 C3.91150954 11.34489479 2.61670999 9.21267394 0 6 C-2.75115981 4.45602123 -2.75115981 4.45602123 -5.75 3.625 C-6.73484375 3.30789062 -7.7196875 2.99078125 -8.734375 2.6640625 C-9.85585938 2.33535156 -9.85585938 2.33535156 -11 2 C-11 1.67 -11 1.34 -11 1 C-9.20991533 0.77848451 -7.41781838 0.57317787 -5.625 0.375 C-4.62726563 0.25898437 -3.62953125 0.14296875 -2.6015625 0.0234375 C-1.74304688 0.01570313 -0.88453125 0.00796875 0 0 Z " fill="#245AA5" transform="translate(270,123)"/>
<path d="M0 0 C0.66 0 1.32 0 2 0 C2 3.63 2 7.26 2 11 C0.29126709 10.99887207 -1.41746582 10.99774414 -3.17797852 10.99658203 C-8.88581541 10.99988035 -14.59315432 11.03103255 -20.30075169 11.0802784 C-23.75431025 11.10909328 -27.20720269 11.12745007 -30.66088867 11.12011719 C-57.4125589 10.84121969 -57.4125589 10.84121969 -79.55859375 24.4609375 C-80.03425781 24.96882813 -80.50992188 25.47671875 -81 26 C-81 25.01 -81 24.02 -81 23 C-81.63514826 20.65789079 -82.2986716 18.32315031 -83 16 C-82.01 15.01 -81.02 14.02 -80 13 C-80.99 13 -81.98 13 -83 13 C-83 11.68 -83 10.36 -83 9 C-80.625 8.375 -80.625 8.375 -78 8 C-77.34 8.66 -76.68 9.32 -76 10 C-74.08952083 11.012786 -74.08952083 11.012786 -71.875 11.8125 C-71.15054688 12.10769531 -70.42609375 12.40289062 -69.6796875 12.70703125 C-66.81283415 13.24756423 -66.81283415 13.24756423 -63.70166016 11.53662109 C-57.66395112 9.1884807 -51.48222741 9.62921249 -45.09375 9.70703125 C-43.75997396 9.71263683 -42.42619169 9.71690237 -41.09240723 9.71989441 C-37.6070811 9.73126773 -34.12213888 9.76066831 -30.63696289 9.79400635 C-27.07052807 9.8248709 -23.50403031 9.8384345 -19.9375 9.85351562 C-12.95817711 9.88554673 -5.97910706 9.93665021 1 10 C0.67 6.7 0.34 3.4 0 0 Z " fill="#195EAB" transform="translate(147,58)"/>
<path d="M0 0 C6.80696203 5.48338608 6.80696203 5.48338608 8.25 9.8125 C8.318991 11.87395107 8.33467727 13.93751401 8.3125 16 C8.30347656 17.08667969 8.29445312 18.17335938 8.28515625 19.29296875 C8.27355469 20.12441406 8.26195312 20.95585938 8.25 21.8125 C8.91 21.8125 9.57 21.8125 10.25 21.8125 C10.91 22.8025 11.57 23.7925 12.25 24.8125 C12.58 24.8125 12.91 24.8125 13.25 24.8125 C13.5 30.4375 13.5 30.4375 11.25 33.8125 C10.59 33.8125 9.93 33.8125 9.25 33.8125 C8.92 32.8225 8.59 31.8325 8.25 30.8125 C7.26 31.4725 6.27 32.1325 5.25 32.8125 C4.92 31.8225 4.59 30.8325 4.25 29.8125 C3.26 29.8125 2.27 29.8125 1.25 29.8125 C1.58 32.4525 1.91 35.0925 2.25 37.8125 C1.59 37.8125 0.93 37.8125 0.25 37.8125 C-0.49754567 34.43495273 -0.97403143 31.27480387 -0.75 27.8125 C0.56876165 25.77593138 2.07899049 24.29547327 3.80078125 22.59375 C6.41571053 19.37971293 6.55832637 15.83542501 6.25 11.8125 C5.01108285 7.94999359 3.65320952 6.18620639 0.6875 3.4375 C-3.90082519 1.26847355 -7.75600875 0.97738441 -12.75 1.8125 C-16.2772243 3.91382511 -18.45710385 6.43349515 -20.75 9.8125 C-20.75 6.52027318 -20.33504415 5.78530347 -18.5 3.1875 C-18.08234375 2.57648437 -17.6646875 1.96546875 -17.234375 1.3359375 C-13.2318174 -2.77195056 -4.87803145 -2.10642267 0 0 Z " fill="#0968B6" transform="translate(162.75,30.1875)"/>
<path d="M0 0 C0.33 0 0.66 0 1 0 C1.19916016 1.03060547 1.19916016 1.03060547 1.40234375 2.08203125 C1.57894531 2.98308594 1.75554687 3.88414063 1.9375 4.8125 C2.11152344 5.70582031 2.28554687 6.59914063 2.46484375 7.51953125 C2.97741153 10.11397171 2.97741153 10.11397171 4 13 C6.475 13.495 6.475 13.495 9 14 C9 18.29 9 22.58 9 27 C-10.8 27 -30.6 27 -51 27 C-51 26.67 -51 26.34 -51 26 C-31.53 26 -12.06 26 8 26 C8 22.37 8 18.74 8 15 C7.34 15 6.68 15 6 15 C6.495 15.99 6.495 15.99 7 17 C7 19.64 7 22.28 7 25 C-10.16 25 -27.32 25 -45 25 C-45 24.67 -45 24.34 -45 24 C-28.5 24 -12 24 5 24 C4.505 20.535 4.505 20.535 4 17 C3.01 16.34 2.02 15.68 1 15 C1 14.01 1 13.02 1 12 C0.01 11.67 -0.98 11.34 -2 11 C-2 9.02 -2 7.04 -2 5 C-1.34 5 -0.68 5 0 5 C0 3.35 0 1.7 0 0 Z " fill="#3F76BB" transform="translate(141,43)"/>
<path d="M0 0 C1.60576364 2.40864545 2.83876821 4.67753641 4.125 7.25 C8.61379482 15.25176467 14.465392 19.43483857 23.14245605 22.18151855 C31.54538412 23.96442519 40.18010695 23.60585264 48.734375 23.609375 C50.82474027 23.6243781 52.91509378 23.64110967 55.00543213 23.65948486 C60.46989527 23.70293136 65.93419856 23.72310693 71.39880371 23.73822021 C76.98992273 23.75787355 82.58087116 23.79983405 88.171875 23.83984375 C99.11453042 23.91489971 110.05714721 23.96533981 121 24 C121 24.33 121 24.66 121 25 C119.86216568 25.01030746 118.72433136 25.02061493 117.55201721 25.03123474 C106.85363589 25.12879137 96.15531505 25.23150814 85.4570322 25.33933926 C79.95632032 25.39461499 74.45560318 25.44804229 68.95483398 25.49731445 C63.65098717 25.54488958 58.34720724 25.59722963 53.04343987 25.65294075 C51.01516309 25.67339546 48.98686795 25.69210326 46.95855904 25.70907402 C44.12798516 25.73304932 41.29753895 25.76311287 38.46704102 25.79467773 C37.61971909 25.8004332 36.77239716 25.80618866 35.8993988 25.81211853 C32.14330256 25.50057097 32.14330256 25.50057097 29 27 C25.5 26.6875 25.5 26.6875 22 26 C21.67 25.34 21.34 24.68 21 24 C17.12081644 22.68254143 14.11624135 22 10 22 C9.87625 20.88625 9.87625 20.88625 9.75 19.75 C8.84562401 16.43395471 7.6285474 15.16468609 5 13 C4.01 12.67 3.02 12.34 2 12 C1.015625 9.78515625 1.015625 9.78515625 0.25 7.0625 C-0.01296875 6.16660156 -0.2759375 5.27070313 -0.546875 4.34765625 C-1 2 -1 2 0 0 Z " fill="#5487C0" transform="translate(61,196)"/>
<path d="M0 0 C0.33 0 0.66 0 1 0 C0.99333817 0.72281662 0.98667633 1.44563324 0.97981262 2.19035339 C0.91927889 9.0586918 0.87381334 15.92698948 0.84456348 22.79552746 C0.82901941 26.32530949 0.80799213 29.85486802 0.77368164 33.38452148 C0.73433842 37.45819028 0.72019801 41.53163056 0.70703125 45.60546875 C0.69154739 46.8507988 0.67606354 48.09612885 0.66011047 49.37919617 C0.65797032 60.71558401 1.63981556 71.04842433 9 80 C9 80.66 9 81.32 9 82 C9.66 82 10.32 82 11 82 C13 84 13 84 14 87 C15.65204456 87.70211894 17.31923769 88.36971413 19 89 C19.495 89.99 19.495 89.99 20 91 C12.41825795 88.70250241 7.73767586 83.09982923 3.45703125 76.734375 C-1.51523522 67.40304382 -2.52564284 59.82821149 -2.20703125 49.27734375 C-2.17960532 47.88158827 -2.15389399 46.48579816 -2.12980652 45.08998108 C-2.075601 42.18755992 -2.00810556 39.28589316 -1.92944336 36.3840332 C-1.82850787 32.65844683 -1.750323 28.93283733 -1.6805315 25.20654964 C-1.61317693 21.64665479 -1.53592711 18.08699893 -1.45703125 14.52734375 C-1.44256266 13.8475691 -1.42809406 13.16779446 -1.41318703 12.46742058 C-1.3704939 10.55749683 -1.31985496 8.6477556 -1.26879883 6.73803711 C-1.24118973 5.65123154 -1.21358063 4.56442596 -1.18513489 3.44468689 C-1 1 -1 1 0 0 Z " fill="#1D68BC" transform="translate(2,216)"/>
<path d="M0 0 C12.04849133 -0.20920668 24.09654548 -0.36878606 36.14648819 -0.46630955 C41.74284606 -0.51313435 47.33795473 -0.57656958 52.93359375 -0.67895508 C58.34130746 -0.77727451 63.74782542 -0.83066808 69.15636444 -0.85389519 C71.21204182 -0.87043117 73.26765911 -0.90272286 75.32282257 -0.95157051 C87.09554762 -1.22007181 95.14396005 -1.04831368 104.13909912 7.06214905 C104.75319641 7.70163986 105.3672937 8.34113068 106 9 C104.15625 9.64453125 104.15625 9.64453125 102 10 C99.5 7.6875 99.5 7.6875 97 5 C94.25408551 3.34542107 92.17820616 2.74391201 88.98834229 2.68356323 C88.2003273 2.6639856 87.41231232 2.64440796 86.60041809 2.62423706 C85.74518051 2.61272614 84.88994293 2.60121521 84.00878906 2.58935547 C83.10112289 2.56955627 82.19345673 2.54975708 81.25828552 2.52935791 C78.26083781 2.4662291 75.26332673 2.41665412 72.265625 2.3671875 C70.18624228 2.32603962 68.10687613 2.28404643 66.02752686 2.24124146 C60.55651267 2.13089062 55.08534864 2.03203251 49.61407471 1.93554688 C44.03034135 1.83505041 38.44682539 1.72371302 32.86328125 1.61328125 C21.90903992 1.39822909 10.95460977 1.19531475 0 1 C0 0.67 0 0.34 0 0 Z " fill="#0D5DA6" transform="translate(91,221)"/>
<path d="M0 0 C-3.0464584 1.61619624 -6.11147885 2.76887659 -9.375 3.875 C-13.79863419 5.48359425 -17.47665508 6.8475335 -21 10 C-21.9688059 13.13265479 -21.9688059 13.13265479 -22 16 C-21.34 16.33 -20.68 16.66 -20 17 C-20.99 19.64 -21.98 22.28 -23 25 C-23.99 25 -24.98 25 -26 25 C-26.66 24.01 -27.32 23.02 -28 22 C-30.52588702 24.36292656 -31.88820837 25.66462511 -33 29 C-33.66 29 -34.32 29 -35 29 C-32.28860217 18.72522927 -26.68837546 11.15053383 -18 5 C-12.0602744 1.61076176 -6.8913046 -0.76570051 0 0 Z " fill="#2063AC" transform="translate(36,1)"/>
<path d="M0 0 C1.32 0 2.64 0 4 0 C4.2475 0.639375 4.495 1.27875 4.75 1.9375 C5.81562433 4.18741541 5.81562433 4.18741541 8.125 4.75 C8.74375 4.8325 9.3625 4.915 10 5 C9.13375 5.66 8.2675 6.32 7.375 7 C2.7035001 10.88739472 -0.72181868 15.72767765 -3.6875 21 C-4.120625 21.66 -4.55375 22.32 -5 23 C-5.99 23 -6.98 23 -8 23 C-8.3125 20.875 -8.3125 20.875 -8 18 C-6.39881603 15.94720004 -4.73223664 13.94348501 -3 12 C-2.67 11.01 -2.34 10.02 -2 9 C-0.68 9 0.64 9 2 9 C2 7.35 2 5.7 2 4 C1.34 3.67 0.68 3.34 0 3 C0 2.01 0 1.02 0 0 Z " fill="#1B6ABB" transform="translate(48,249)"/>
<path d="M0 0 C0.99 0.33 1.98 0.66 3 1 C3 11.56 3 22.12 3 33 C2.01 33 1.02 33 0 33 C0 22.11 0 11.22 0 0 Z " fill="#0B69B9" transform="translate(53,144)"/>
<path d="M0 0 C0 17.16 0 34.32 0 52 C-8 51 -8 51 -10 49 C-7.03 49.33 -4.06 49.66 -1 50 C-1.33 34.16 -1.66 18.32 -2 2 C-3.65 2.66 -5.3 3.32 -7 4 C-7.886875 4.28875 -8.77375 4.5775 -9.6875 4.875 C-12.4022379 6.1956833 -12.97953925 7.21692523 -14 10 C-14 6.00523669 -12.71130915 4.8578664 -10 2 C-6.24971547 -0.01938398 -4.46474418 0 0 0 Z " fill="#D6EBFB" transform="translate(50,126)"/>
<path d="M0 0 C1.09142742 2.74490727 1.03727116 3.8908376 0.06640625 6.734375 C-5.02724124 16.94813049 -10.51342524 23.23030157 -20.80078125 28.28515625 C-23 29 -23 29 -26 28 C-24.71086513 27.32845067 -23.41859796 26.66291141 -22.125 26 C-21.40570313 25.62875 -20.68640625 25.2575 -19.9453125 24.875 C-18 24 -18 24 -16 24 C-16.37125 23.071875 -16.7425 22.14375 -17.125 21.1875 C-17.41375 20.135625 -17.7025 19.08375 -18 18 C-17.34 17.01 -16.68 16.02 -16 15 C-13.61435923 15.57584432 -11.33317216 16.22227595 -9 17 C-8.67 16.01 -8.34 15.02 -8 14 C-7.401875 13.484375 -6.80375 12.96875 -6.1875 12.4375 C-2.93745207 8.81601802 -1.62756429 4.53640259 0 0 Z " fill="#195FAE" transform="translate(306,281)"/>
<path d="M0 0 C1.10844919 3.32534757 0.84454356 5.62182575 0 9 C-0.66 9 -1.32 9 -2 9 C-1.65772428 11.97065509 -1.65772428 11.97065509 -1 15 C-0.34 15.33 0.32 15.66 1 16 C1.33 16.99 1.66 17.98 2 19 C2.99 19.66 3.98 20.32 5 21 C5.1875 24.125 5.1875 24.125 5 27 C4.01 27 3.02 27 2 27 C2 25.68 2 24.36 2 23 C1.01 23 0.02 23 -1 23 C-1 22.34 -1 21.68 -1 21 C-1.66 21 -2.32 21 -3 21 C-3.103125 20.278125 -3.20625 19.55625 -3.3125 18.8125 C-4.06029278 15.75334771 -5.34777805 13.65792227 -7 11 C-7 10.34 -7 9.68 -7 9 C-6.01 8.67 -5.02 8.34 -4 8 C-3.28293018 6.01751285 -2.61709587 4.01584651 -2 2 C-1.34 1.34 -0.68 0.68 0 0 Z " fill="#036BB4" transform="translate(141,39)"/>
<path d="M0 0 C0.66 0.99 1.32 1.98 2 3 C1.67 3.66 1.34 4.32 1 5 C-1 5.66666667 -3 6.33333333 -5 7 C-5.33 7.66 -5.66 8.32 -6 9 C-8.22265625 10.03515625 -8.22265625 10.03515625 -11.0625 11.0625 C-11.98160156 11.40410156 -12.90070313 11.74570313 -13.84765625 12.09765625 C-17 13 -17 13 -25 14 C-25.33 20.27 -25.66 26.54 -26 33 C-26.66 32.67 -27.32 32.34 -28 32 C-27.67 25.4 -27.34 18.8 -27 12 C-23.0709375 10.948125 -23.0709375 10.948125 -19.0625 9.875 C-11.88378408 7.85323082 -5.3913992 5.3913992 0 0 Z " fill="#4471AD" transform="translate(240,209)"/>
<path d="M0 0 C6.80696203 5.48338608 6.80696203 5.48338608 8.25 9.8125 C8.31802967 11.54045352 8.33495645 13.27085365 8.3125 15 C8.30347656 15.90105469 8.29445312 16.80210938 8.28515625 17.73046875 C8.27355469 18.41753906 8.26195312 19.10460937 8.25 19.8125 C7.92 19.8125 7.59 19.8125 7.25 19.8125 C7.16363281 19.07644531 7.07726562 18.34039062 6.98828125 17.58203125 C6.10576216 11.45297668 5.42676328 7.72663809 0.25 3.8125 C-3.99266936 0.98405376 -7.76771295 1.15882394 -12.75 1.8125 C-16.2772243 3.91382511 -18.45710385 6.43349515 -20.75 9.8125 C-20.75 6.52027318 -20.33504415 5.78530347 -18.5 3.1875 C-18.08234375 2.57648437 -17.6646875 1.96546875 -17.234375 1.3359375 C-13.2318174 -2.77195056 -4.87803145 -2.10642267 0 0 Z " fill="#1E5C9F" transform="translate(162.75,30.1875)"/>
<path d="M0 0 C2 2 2 2 2.375 3.875 C2.84165125 6.18337645 2.84165125 6.18337645 5.01464844 7.69824219 C7.73589955 10.85318015 7.46046888 12.83233616 7.390625 16.953125 C7.38496521 17.61334656 7.37930542 18.27356812 7.37347412 18.95379639 C7.3511623 21.05328263 7.30098314 23.1510337 7.25 25.25 C7.22992794 26.6770586 7.21167839 28.10414408 7.1953125 29.53125 C7.15131693 33.02139293 7.08232876 36.51052699 7 40 C6.67 40 6.34 40 6 40 C5.9906543 39.17274414 5.98130859 38.34548828 5.97167969 37.49316406 C5.91799681 33.74483585 5.8343429 29.99775838 5.75 26.25 C5.73582031 24.94804687 5.72164063 23.64609375 5.70703125 22.3046875 C5.67480469 21.05429688 5.64257812 19.80390625 5.609375 18.515625 C5.58842773 17.36352539 5.56748047 16.21142578 5.54589844 15.02441406 C4.89352336 11.41009274 3.78558177 10.30061427 1 8 C0.51917969 7.45730469 0.03835938 6.91460937 -0.45703125 6.35546875 C-2.41038239 4.63948687 -4.20983848 4.0665709 -6.6875 3.3125 C-7.49574219 3.06113281 -8.30398438 2.80976562 -9.13671875 2.55078125 C-9.75160156 2.36902344 -10.36648438 2.18726562 -11 2 C-11 1.67 -11 1.34 -11 1 C-9.20991533 0.77848451 -7.41781838 0.57317787 -5.625 0.375 C-4.62726563 0.25898437 -3.62953125 0.14296875 -2.6015625 0.0234375 C-1.74304688 0.01570313 -0.88453125 0.00796875 0 0 Z " fill="#185CA8" transform="translate(270,123)"/>
<path d="M0 0 C0.33 0 0.66 0 1 0 C1.09940876 4.71388705 1.17172034 9.42715442 1.21972656 14.1418457 C1.23975347 15.74319091 1.26698354 17.3444638 1.30175781 18.94555664 C1.35067419 21.25685537 1.37305711 23.56718154 1.390625 25.87890625 C1.41127014 26.58648575 1.43191528 27.29406525 1.45318604 28.02308655 C1.45563546 33.53751533 0.13111732 36.61524281 -3 41 C-6.25 41.9375 -6.25 41.9375 -9 42 C-8.236875 41.278125 -7.47375 40.55625 -6.6875 39.8125 C-1.89605825 34.7982005 -0.62708705 31.47976996 -0.48828125 24.51171875 C-0.47033005 23.80852005 -0.45237885 23.10532135 -0.43388367 22.3808136 C-0.3799952 20.14976883 -0.34595588 17.9189353 -0.3125 15.6875 C-0.27930776 14.16859053 -0.24481633 12.64970886 -0.20898438 11.13085938 C-0.12428305 7.42077584 -0.05736926 3.7106183 0 0 Z " fill="#25599B" transform="translate(275,134)"/>
<path d="M0 0 C0.33 0.66 0.66 1.32 1 2 C1.66 2 2.32 2 3 2 C3.226875 3.010625 3.45375 4.02125 3.6875 5.0625 C4.90261889 9.42628461 7.31313717 12.39394725 10 16 C10 16.66 10 17.32 10 18 C10.66 18 11.32 18 12 18 C14 20 14 20 15 23 C16.65204456 23.70211894 18.31923769 24.36971413 20 25 C20.33 25.66 20.66 26.32 21 27 C12.40696565 24.3960502 7.29837314 17.48958956 3 10 C1.27645997 6.63715311 0 3.85047606 0 0 Z " fill="#21589C" transform="translate(1,280)"/>
<path d="M0 0 C0.99 0.66 1.98 1.32 3 2 C0.69 2.33 -1.62 2.66 -4 3 C-4 9.6 -4 16.2 -4 23 C-7.23475448 21.38262276 -8.70572021 20.52370777 -11 18 C-9.35 17.67 -7.7 17.34 -6 17 C-6 12.05 -6 7.1 -6 2 C-4.02 1.34 -2.04 0.68 0 0 Z " fill="#E7F8FE" transform="translate(217,218)"/>
<path d="M0 0 C2.62187494 1.04874998 3.79371361 1.64931313 5.25 4.125 C5.4975 4.74375 5.745 5.3625 6 6 C6.66 6 7.32 6 8 6 C8.33 5.34 8.66 4.68 9 4 C11.0625 3.375 11.0625 3.375 13 3 C12.67 5.31 12.34 7.62 12 10 C11.34 10 10.68 10 10 10 C10 11.65 10 13.3 10 15 C8 11.25 8 11.25 8 9 C7.01 9 6.02 9 5 9 C2.77051019 6.04920467 1.17140125 3.51420376 0 0 Z " fill="#1467B5" transform="translate(241,80)"/>
<path d="M0 0 C-1.37681732 2.81708245 -2.83513619 5.55443471 -4.4375 8.25 C-4.84871094 8.95640625 -5.25992188 9.6628125 -5.68359375 10.390625 C-6.11800781 10.92171875 -6.55242188 11.4528125 -7 12 C-7.99 12 -8.98 12 -10 12 C-10.56888521 8.1315806 -10.01699174 7.02388028 -7.6875 3.75 C-5.04245196 1.04343921 -3.7862609 0 0 0 Z " fill="#3C6AB2" transform="translate(50,260)"/>
<path d="M0 0 C5.9557783 5.80306604 5.9557783 5.80306604 6.11352539 10.07275391 C6.10828857 11.36101074 6.10305176 12.64926758 6.09765625 13.9765625 C6.0962413 14.66181 6.09482635 15.3470575 6.09336853 16.05307007 C6.08776675 18.24375761 6.07521406 20.4343433 6.0625 22.625 C6.05748522 24.10937352 6.05292228 25.59374865 6.04882812 27.078125 C6.03779677 30.71878315 6.02053099 34.35938164 6 38 C5.67 38 5.34 38 5 38 C4.67 27.44 4.34 16.88 4 6 C3.01 6 2.02 6 1 6 C0.67 4.02 0.34 2.04 0 0 Z " fill="#A9C6F4" transform="translate(269,128)"/>
<path d="M0 0 C1.46726798 3.81489674 0.43336419 6.29011622 -1 10 C-1.66 10 -2.32 10 -3 10 C-3.4021875 10.8353125 -3.4021875 10.8353125 -3.8125 11.6875 C-5.10122647 14.19712523 -6.52926478 16.59334236 -8 19 C-8.99 18.67 -9.98 18.34 -11 18 C-10.59007812 17.43152344 -10.18015625 16.86304688 -9.7578125 16.27734375 C-6.46970786 11.56544261 -4.19781704 7.62974007 -3 2 C-2.34 2.33 -1.68 2.66 -1 3 C-0.67 2.01 -0.34 1.02 0 0 Z " fill="#2C6BB4" transform="translate(252,190)"/>
<path d="M0 0 C0 0.33 0 0.66 0 1 C-0.87140625 1.15855469 -1.7428125 1.31710938 -2.640625 1.48046875 C-10.17592589 2.95653959 -16.68700651 4.8597303 -23.671875 8.109375 C-24.44015625 8.40328125 -25.2084375 8.6971875 -26 9 C-26.66 8.67 -27.32 8.34 -28 8 C-27.01 7.67 -26.02 7.34 -25 7 C-25 6.34 -25 5.68 -25 5 C-16.37812005 1.33655299 -9.35244251 -0.18704885 0 0 Z " fill="#295CA0" transform="translate(86,244)"/>
<path d="M0 0 C0.99 0.99 1.98 1.98 3 3 C-3.93 4.485 -3.93 4.485 -11 6 C-11 5.01 -11 4.02 -11 3 C-7.38490196 0.12918685 -4.56700706 -0.59569657 0 0 Z " fill="#205FB0" transform="translate(48,123)"/>
<path d="M0 0 C1 2 2 4 3 6 C2.34 6 1.68 6 1 6 C1.3403125 6.8971875 1.3403125 6.8971875 1.6875 7.8125 C1.790625 8.534375 1.89375 9.25625 2 10 C0.5625 11.75 0.5625 11.75 -1 13 C-1.66 12.67 -2.32 12.34 -3 12 C-4.26229508 7.52459016 -4.26229508 7.52459016 -3 5 C-2.34 5 -1.68 5 -1 5 C-0.67 3.35 -0.34 1.7 0 0 Z " fill="#1964B5" transform="translate(4,25)"/>
<path d="M0 0 C9.19515435 2.29878859 14.88167306 8.36128479 20 16 C19.67 16.66 19.34 17.32 19 18 C14 12.25 14 12.25 14 10 C13.443125 9.7525 12.88625 9.505 12.3125 9.25 C9.597148 7.78224216 7.40278741 5.93395084 5 4 C4.071875 3.443125 3.14375 2.88625 2.1875 2.3125 C1.465625 1.879375 0.74375 1.44625 0 1 C0 0.67 0 0.34 0 0 Z " fill="#25589A" transform="translate(283,3)"/>
<path d="M0 0 C2.97 0 5.94 0 9 0 C9 0.66 9 1.32 9 2 C9.72574219 2.10183594 10.45148438 2.20367187 11.19921875 2.30859375 C14.29731653 3.07339613 16.21088295 4.23748505 18.8125 6.0625 C19.60269531 6.61035156 20.39289063 7.15820312 21.20703125 7.72265625 C21.79871094 8.14417969 22.39039063 8.56570312 23 9 C22.67 9.66 22.34 10.32 22 11 C21.50113281 10.61328125 21.00226563 10.2265625 20.48828125 9.828125 C14.08530168 5.18395311 7.6094159 2.99938285 0 1 C0 0.67 0 0.34 0 0 Z " fill="#2E5FA3" transform="translate(218,69)"/>
<path d="M0 0 C5.48938665 2.8666797 10.49020641 5.72147788 15 10 C15 10.66 15 11.32 15 12 C16.32 12.33 17.64 12.66 19 13 C16.69 13 14.38 13 12 13 C11.67 11.35 11.34 9.7 11 8 C10.443125 7.896875 9.88625 7.79375 9.3125 7.6875 C6.5230899 6.85821592 4.3860936 5.65700944 2 4 C2 3.34 2 2.68 2 2 C1.34 2 0.68 2 0 2 C0 1.34 0 0.68 0 0 Z " fill="#255DA1" transform="translate(197,231)"/>
<path d="M0 0 C1.11872419 2.78349234 1.02847781 3.91755213 0.03125 6.8046875 C-3.21661958 13.31699742 -6.0717641 17.73167016 -12 22 C-11.68804687 21.38125 -11.37609375 20.7625 -11.0546875 20.125 C-10.37981287 18.7652526 -9.7334489 17.39074034 -9.125 16 C-8 14 -8 14 -6.125 12.375 C-2.91196865 8.78396496 -1.61182805 4.492542 0 0 Z " fill="#22579F" transform="translate(306,281)"/>
<path d="M0 0 C1.5665453 3.1330906 0.14155695 5.35098554 -0.875 8.625 C-2.42064553 13.80557743 -3.56956392 18.619549 -4 24 C-4.33 24 -4.66 24 -5 24 C-5.144375 23.0925 -5.28875 22.185 -5.4375 21.25 C-5.86409473 18.78523044 -6.35074221 16.41152893 -7 14 C-6.01 13.67 -5.02 13.34 -4 13 C-3.26543322 11.02719591 -3.26543322 11.02719591 -2.9375 8.6875 C-2.37408116 5.44113432 -1.59545317 2.89300015 0 0 Z " fill="#1B5295" transform="translate(40,272)"/>
<path d="M0 0 C0.66 0 1.32 0 2 0 C2.8985997 3.36974887 3.14852081 6.65441178 3.25 10.125 C3.27578125 10.97320312 3.3015625 11.82140625 3.328125 12.6953125 C2.9362108 15.44804317 2.12795039 16.28643995 0 18 C-0.66 17.67 -1.32 17.34 -2 17 C-1.34 16.34 -0.68 15.68 0 15 C0.14497985 12.41935871 0.18677545 9.95056116 0.125 7.375 C0.11146484 6.31539063 0.11146484 6.31539063 0.09765625 5.234375 C0.07407603 3.48943902 0.03820461 1.74467705 0 0 Z " fill="#026BB6" transform="translate(11,273)"/>
<path d="M0 0 C0.99 0.33 1.98 0.66 3 1 C1.37660195 2.70884005 -0.29319053 4.37446717 -2 6 C-2.66 6 -3.32 6 -4 6 C-4 7.65 -4 9.3 -4 11 C-5.65 11.33 -7.3 11.66 -9 12 C-7.88081459 6.77713475 -5.6539919 4.36488719 -1.75390625 1.00390625 C-1.17511719 0.67261719 -0.59632813 0.34132813 0 0 Z " fill="#2C3033" transform="translate(187,120)"/>
<path d="M0 0 C5.94357836 -0.89153675 8.98223464 -0.40920219 13.92480469 3.21899414 C16.32761738 5.09847509 18.67864477 7.02036712 21 9 C19.1484375 9.640625 19.1484375 9.640625 17 10 C15.28891311 8.37897032 13.62746694 6.70496537 12 5 C8.02569771 2.63233055 4.58548169 1.54589068 0 1 C0 0.67 0 0.34 0 0 Z " fill="#2A5DA0" transform="translate(176,221)"/>
<path d="M0 0 C0.33 0 0.66 0 1 0 C1.16435547 0.99580078 1.16435547 0.99580078 1.33203125 2.01171875 C2.21136023 6.90879478 2.99451714 10.90161428 6 15 C3 14 3 14 1 11 C0.01 11 -0.98 11 -2 11 C-2 9.02 -2 7.04 -2 5 C-1.34 5 -0.68 5 0 5 C0 3.35 0 1.7 0 0 Z " fill="#295FAC" transform="translate(141,43)"/>
<path d="M0 0 C2.375 0.25 2.375 0.25 5 1 C6.125 3 6.125 3 7 5 C7.99 5.33 8.98 5.66 10 6 C10 6.66 10 7.32 10 8 C10.66 8 11.32 8 12 8 C12 9.32 12 10.64 12 12 C11.01 11.67 10.02 11.34 9 11 C9 10.34 9 9.68 9 9 C8.2575 8.566875 7.515 8.13375 6.75 7.6875 C3.71650466 5.82603695 2.04920571 3.8840673 0 1 C0 0.67 0 0.34 0 0 Z " fill="#286DBB" transform="translate(12,297)"/>
<path d="M0 0 C0 0.33 0 0.66 0 1 C-1.8253125 1.12375 -1.8253125 1.12375 -3.6875 1.25 C-8.88882657 1.90246323 -11.55684606 4.20849856 -14.8125 8.25 C-15.204375 8.8275 -15.59625 9.405 -16 10 C-16 6.70777318 -15.58504415 5.97280347 -13.75 3.375 C-13.33234375 2.76398437 -12.9146875 2.15296875 -12.484375 1.5234375 C-8.918273 -2.13650929 -4.63934161 -0.80296297 0 0 Z " fill="#2761A5" transform="translate(158,30)"/>
<path d="M0 0 C3.3 0 6.6 0 10 0 C10 0.99 10 1.98 10 3 C5.545 3.495 5.545 3.495 1 4 C0.67 2.68 0.34 1.36 0 0 Z " fill="#026BBA" transform="translate(272,10)"/>
<path d="M0 0 C0.66 1.32 1.32 2.64 2 4 C2.66 4 3.32 4 4 4 C4.33 5.65 4.66 7.3 5 9 C1 9 1 9 -0.75 7.5 C-1.1625 7.005 -1.575 6.51 -2 6 C-1.34 4.02 -0.68 2.04 0 0 Z " fill="#2568B6" transform="translate(169,48)"/>
<path d="M0 0 C0.66 0.33 1.32 0.66 2 1 C0.18581152 5.17263349 -0.81074222 7.22273912 -5 9 C-6.37086915 10.29470975 -7.71340837 11.62150897 -9 13 C-7.47987323 7.59510481 -3.72614782 4.01507372 0 0 Z " fill="#DAEEF8" transform="translate(54,256)"/>
<path d="M0 0 C1.75665645 5.69356026 -0.75511881 10.70849435 -3 16 C-3.33 16 -3.66 16 -4 16 C-3.47606294 10.13190493 -2.23891142 5.45126259 0 0 Z " fill="#CDE3F7" transform="translate(41,272)"/>
<path d="M0 0 C2.71631546 0.90543849 5.34771188 1.92474806 8 3 C8 3.33 8 3.66 8 4 C6.35 4.33 4.7 4.66 3 5 C2.67 5.99 2.34 6.98 2 8 C1.01 8 0.02 8 -1 8 C-0.7525 7.13375 -0.7525 7.13375 -0.5 6.25 C0.14462031 3.73335631 0.14462031 3.73335631 0 0 Z " fill="#1E6ABB" transform="translate(273,0)"/>
<path d="M0 0 C0.66 0.99 1.32 1.98 2 3 C1.67 3.66 1.34 4.32 1 5 C-1 5.66666667 -3 6.33333333 -5 7 C-5.33 7.66 -5.66 8.32 -6 9 C-6.99 9 -7.98 9 -9 9 C-7.83709195 5.51127585 -6.86032391 4.90023136 -3.9375 2.8125 C-3.20402344 2.28269531 -2.47054687 1.75289062 -1.71484375 1.20703125 C-1.14894531 0.80871094 -0.58304688 0.41039062 0 0 Z " fill="#2C61AA" transform="translate(240,209)"/>
<path d="M0 0 C0 0.66 0 1.32 0 2 C-3.3 2 -6.6 2 -10 2 C-9.67 1.01 -9.34 0.02 -9 -1 C-5.22102349 -2.0497157 -3.35080929 -2.10976881 0 0 Z " fill="#036BB3" transform="translate(270,122)"/>
<path d="M0 0 C0.33 0.66 0.66 1.32 1 2 C1.66 2 2.32 2 3 2 C3.268125 3.051875 3.53625 4.10375 3.8125 5.1875 C4.8676829 8.57519246 6.04726378 11.07089567 8 14 C7.01 14 6.02 14 5 14 C4.15973604 12.23244474 3.32801278 10.46082737 2.5 8.6875 C2.0359375 7.70136719 1.571875 6.71523438 1.09375 5.69921875 C0 3 0 3 0 0 Z " fill="#2A5DA2" transform="translate(1,280)"/>
<path d="M0 0 C2.46751239 3.70126859 2.30721156 5.62223532 2 10 C1 12.4375 1 12.4375 0 14 C-0.91297308 9.02936879 -0.91297308 4.97063121 0 0 Z " fill="#3F4346" transform="translate(133,130)"/>
<path d="M0 0 C1.10844919 3.32534757 0.84454356 5.62182575 0 9 C-0.66 9 -1.32 9 -2 9 C-2 10.65 -2 12.3 -2 14 C-2.33 14 -2.66 14 -3 14 C-3.08114106 12.22992286 -3.13925505 10.45877902 -3.1875 8.6875 C-3.22230469 7.70136719 -3.25710937 6.71523438 -3.29296875 5.69921875 C-3 3 -3 3 -1.48828125 1.14453125 C-0.99714844 0.76683594 -0.50601563 0.38914063 0 0 Z " fill="#0660AC" transform="translate(141,39)"/>
<path d="M0 0 C1.96217707 2.9432656 3.58240698 5.75978738 5 9 C4.67 9.99 4.34 10.98 4 12 C3.34 12 2.68 12 2 12 C1.47026689 10.37787941 0.95146893 8.75218416 0.4375 7.125 C0.14746094 6.22007812 -0.14257812 5.31515625 -0.44140625 4.3828125 C-1 2 -1 2 0 0 Z " fill="#3E72B0" transform="translate(61,196)"/>
<path d="M0 0 C1.125 3.75 1.125 3.75 0 6 C-0.66 6 -1.32 6 -2 6 C-1.67 8.64 -1.34 11.28 -1 14 C-1.66 14 -2.32 14 -3 14 C-3.58718592 10.65559323 -4.05863115 7.40060685 -4 4 C-2.0625 1.375 -2.0625 1.375 0 0 Z " fill="#2E65B2" transform="translate(166,54)"/>
<path d="M0 0 C1.2380014 3.57644848 0.74926071 6.33694766 0 10 C1.98 10.495 1.98 10.495 4 11 C3.01 11.33 2.02 11.66 1 12 C1.33 13.32 1.66 14.64 2 16 C0.515625 14.84765625 0.515625 14.84765625 -1 13 C-1.328125 10.37109375 -1.328125 10.37109375 -1.25 7.4375 C-1.23453125 6.46683594 -1.2190625 5.49617188 -1.203125 4.49609375 C-1 2 -1 2 0 0 Z " fill="#D8EBFB" transform="translate(143,38)"/>
<path d="M0 0 C3.65882521 3.3621637 6.14420341 6.36050852 8 11 C7.67 11.66 7.34 12.32 7 13 C4.49701566 10.06171403 3.53069061 7.82097239 3 4 C2.01 4 1.02 4 0 4 C-0.33 3.01 -0.66 2.02 -1 1 C-0.67 0.67 -0.34 0.34 0 0 Z " fill="#DFF2FB" transform="translate(241,82)"/>
<path d="M0 0 C5.53846154 -0.36923077 5.53846154 -0.36923077 7.875 1.5 C8.24625 1.995 8.6175 2.49 9 3 C8.67 3.33 8.34 3.66 8 4 C5.66055264 3.71269945 3.3260857 3.38063221 1 3 C0.67 2.01 0.34 1.02 0 0 Z " fill="#2762AE" transform="translate(82,219)"/>
<path d="M0 0 C1.33804688 0.04060547 1.33804688 0.04060547 2.703125 0.08203125 C3.37859375 0.11683594 4.0540625 0.15164062 4.75 0.1875 C4.75 0.5175 4.75 0.8475 4.75 1.1875 C4.15832031 1.20167969 3.56664062 1.21585938 2.95703125 1.23046875 C-1.57713788 1.50414617 -3.65387548 1.66747648 -7.1875 4.75 C-7.868125 5.554375 -8.54875 6.35875 -9.25 7.1875 C-9.91 7.1875 -10.57 7.1875 -11.25 7.1875 C-8.97223512 1.68290154 -5.91789024 -0.23360093 0 0 Z " fill="#B3CFF0" transform="translate(155.25,30.8125)"/>
<path d="M0 0 C1.13869156 2.7949702 1.06846818 3.82681578 -0.0625 6.6875 C-2 9 -2 9 -5.1875 9.8125 C-6.115625 9.874375 -7.04375 9.93625 -8 10 C-7.236875 9.278125 -6.47375 8.55625 -5.6875 7.8125 C-3.28866409 5.30209033 -1.64589779 3.03191698 0 0 Z " fill="#3668A7" transform="translate(274,166)"/>
<path d="M0 0 C1 4 1 4 0.00390625 5.921875 C-0.47175781 6.52515625 -0.94742188 7.1284375 -1.4375 7.75 C-1.91058594 8.36359375 -2.38367188 8.9771875 -2.87109375 9.609375 C-3.24363281 10.06828125 -3.61617187 10.5271875 -4 11 C-4.99 10.67 -5.98 10.34 -7 10 C-3.535 5.05 -3.535 5.05 0 0 Z " fill="#2A60A2" transform="translate(248,198)"/>
<path d="M0 0 C1.8141927 0.28094582 3.62635001 0.57506433 5.4375 0.875 C6.95150391 1.11863281 6.95150391 1.11863281 8.49609375 1.3671875 C9.32238281 1.57601562 10.14867187 1.78484375 11 2 C11.33 2.66 11.66 3.32 12 4 C8.69564916 5.12377697 6.9493138 4.89554742 3.75 3.5625 C3.04359375 3.27503906 2.3371875 2.98757812 1.609375 2.69140625 C1.07828125 2.46324219 0.5471875 2.23507813 0 2 C0 1.34 0 0.68 0 0 Z " fill="#2365B8" transform="translate(40,177)"/>
<path d="M0 0 C2.6875 -0.3125 2.6875 -0.3125 5 0 C1.83047153 3.26008643 -1.39937989 6.22237877 -5 9 C-4.35330586 7.65686601 -3.68096422 6.32608822 -3 5 C-2.3503125 3.63875 -2.3503125 3.63875 -1.6875 2.25 C-1.130625 1.5075 -0.57375 0.765 0 0 Z " fill="#19569B" transform="translate(70,75)"/>
<path d="M0 0 C0.66 0.33 1.32 0.66 2 1 C2 2.65 2 4.3 2 6 C2.66 6 3.32 6 4 6 C3.67 6.66 3.34 7.32 3 8 C1.35 7.67 -0.3 7.34 -2 7 C-1.34 6.67 -0.68 6.34 0 6 C-0.33 5.01 -0.66 4.02 -1 3 C-0.67 2.01 -0.34 1.02 0 0 Z " fill="#056AB0" transform="translate(278,298)"/>
<path d="M0 0 C2 1 4 2 6 3 C3.69 4.65 1.38 6.3 -1 8 C-0.67 5.36 -0.34 2.72 0 0 Z " fill="#1C5CA6" transform="translate(52,251)"/>
<path d="M0 0 C2 1 2 1 2.6875 2.9375 C3 5 3 5 2 7 C0.68 6.34 -0.64 5.68 -2 5 C-1.34 3.35 -0.68 1.7 0 0 Z " fill="#0269BF" transform="translate(52,118)"/>
<path d="M0 0 C0.66 0 1.32 0 2 0 C3.35015859 4.05047576 2.62084998 6.7920168 2 11 C1.67 11 1.34 11 1 11 C0.7834375 9.63875 0.7834375 9.63875 0.5625 8.25 C0.07533901 5.13728293 0.07533901 5.13728293 -0.625 2.6875 C-0.74875 2.130625 -0.8725 1.57375 -1 1 C-0.67 0.67 -0.34 0.34 0 0 Z " fill="#11519E" transform="translate(34,285)"/>
<path d="M0 0 C0.99 0.33 1.98 0.66 3 1 C2.34 1.66 1.68 2.32 1 3 C0.53709779 5.66242821 0.53709779 5.66242821 0.375 8.625 C0.30023438 9.62789062 0.22546875 10.63078125 0.1484375 11.6640625 C0.09945312 12.43492188 0.05046875 13.20578125 0 14 C-0.33 14 -0.66 14 -1 14 C-1.02685938 11.85423363 -1.04633088 9.70837355 -1.0625 7.5625 C-1.07410156 6.36753906 -1.08570313 5.17257813 -1.09765625 3.94140625 C-1 1 -1 1 0 0 Z " fill="#E6FAFC" transform="translate(161,56)"/>
<path d="M0 0 C0.625 1.8125 0.625 1.8125 1 4 C0.01 5.485 0.01 5.485 -1 7 C-1.66 6.67 -2.32 6.34 -3 6 C-2.625 3.5625 -2.625 3.5625 -2 1 C-1.34 0.67 -0.68 0.34 0 0 Z " fill="#046BB4" transform="translate(174,46)"/>
<path d="M0 0 C0 0.66 0 1.32 0 2 C-2.64 2.33 -5.28 2.66 -8 3 C-8 2.34 -8 1.68 -8 1 C-5.07175348 0.02391783 -3.04386724 -0.08226668 0 0 Z " fill="#0569BB" transform="translate(44,302)"/>
<path d="M0 0 C0.99 0 1.98 0 3 0 C2.34 2.97 1.68 5.94 1 9 C0.67 9 0.34 9 0 9 C0 6.03 0 3.06 0 0 Z " fill="#2267BE" transform="translate(35,276)"/>
<path d="M0 0 C0.66 0 1.32 0 2 0 C2 2.31 2 4.62 2 7 C1.01 7 0.02 7 -1 7 C-1.125 2.25 -1.125 2.25 0 0 Z " fill="#2C67B6" transform="translate(41,265)"/>
<path d="M0 0 C2.5625 2.25 2.5625 2.25 5 5 C4.8125 7.3125 4.8125 7.3125 4 9 C4 8.01 4 7.02 4 6 C3.01 6 2.02 6 1 6 C0.67 4.02 0.34 2.04 0 0 Z " fill="#CAE0F4" transform="translate(269,128)"/>
<path d="M0 0 C0.66 0.33 1.32 0.66 2 1 C0.68 3.64 -0.64 6.28 -2 9 C-2.33 9 -2.66 9 -3 9 C-2.25 2.25 -2.25 2.25 0 0 Z " fill="#4370A9" transform="translate(64,84)"/>
<path d="M0 0 C2.49415272 0.99766109 3.78740335 1.68616685 5.3125 3.9375 C6 6 6 6 5 9 C1.125 3.375 1.125 3.375 0 0 Z " fill="#3260A8" transform="translate(241,80)"/>
<path d="M0 0 C0.66 0.33 1.32 0.66 2 1 C1.5359375 2.1446875 1.5359375 2.1446875 1.0625 3.3125 C0.32106407 5.18789677 -0.36228217 7.08684652 -1 9 C-1.66 9 -2.32 9 -3 9 C-2.01 6.03 -1.02 3.06 0 0 Z " fill="#3462A3" transform="translate(4,21)"/>
</svg>
